HIERARCHY
ROOT Hips
{
  OFFSET 21.6938 97.4507 -20.5101
  CHANNELS 6 Xposition Yposition Zposition Zrotation Xrotation Yrotation
  JOINT Spine
  {
    OFFSET -0.000355721 21.3001 -0.016921
    CHANNELS 3 Zrotation Xrotation Yrotation
    JOINT LeftArm
    {
      OFFSET 13.5181 21.3012 0
      CHANNELS 3 Zrotation Xrotation Yrotation
      JOINT LeftForeArm
      {
        OFFSET 24.5783 0 0
        CHANNELS 3 Zrotation Xrotation Yrotation
        JOINT LeftHand
        {
          OFFSET 24.5783 0 0
          CHANNELS 3 Zrotation Xrotation Yrotation
          End Site
          {
            OFFSET 7.32568 1.52588e-05 0.0169305
          }
        }
      }
    }
    JOINT Head
    {
      OFFSET 0 27.4458 -0.00489235
      CHANNELS 3 Zrotation Xrotation Yrotation
      End Site
      {
        OFFSET 0 0 0
      }
    }
    JOINT RightArm
    {
      OFFSET -13.5174 21.3012 0
      CHANNELS 3 Zrotation Xrotation Yrotation
      JOINT RightForeArm
      {
        OFFSET -24.5783 0 0
        CHANNELS 3 Zrotation Xrotation Yrotation
        JOINT RightHand
        {
          OFFSET -24.5783 0 0
          CHANNELS 3 Zrotation Xrotation Yrotation
          End Site
          {
            OFFSET -7.32568 1.52588e-05 0.0169305
          }
        }
      }
    }
  }
  JOINT RightUpLeg
  {
    OFFSET -8.44614 -9.41038 0.835684
    CHANNELS 3 Zrotation Xrotation Yrotation
    JOINT RightLeg
    {
      OFFSET 0 -40.9639 0
      CHANNELS 3 Zrotation Xrotation Yrotation
      JOINT RightFoot
      {
        OFFSET 0 -40.9639 0
        CHANNELS 3 Zrotation Xrotation Yrotation
        End Site
        {
          OFFSET 0.50614 -9.67405 14.6709
        }
      }
    }
  }
  JOINT LeftUpLeg
  {
    OFFSET 8.44614 -9.41038 0.835684
    CHANNELS 3 Zrotation Xrotation Yrotation
    JOINT LeftLeg
    {
      OFFSET 0 -40.9639 0
      CHANNELS 3 Zrotation Xrotation Yrotation
      JOINT LeftFoot
      {
        OFFSET 0 -40.9639 0
        CHANNELS 3 Zrotation Xrotation Yrotation
        End Site
        {
          OFFSET -0.50614 -9.67405 14.6709
        }
      }
    }
  }
}
MOTION
Frames:	12
Frame Time:	0.0333333
-21.0845 91.8363 24.4318 9.01455 15.901 -62.4824 -22.4448 7.25046 29.3535 -106.091 6.6669 32.6464 31.7289 -42.799 -108.061 -0.158904 -45.6784 -1.25224 -16.5446 24.0374 10.2966 56.8104 36.212 48.0412 -20.1505 -29.777 66.1019 16.4378 -81.7307 17.0098 -0.286188 9.44108 2.00717 -0.249478 27.8492 -0.587888 17.5626 19.6061 -18.8235 23.2856 -61.8 -15.5627 -7.1586 54.9248 9.23359 0.31399 25.2423 -11.0712 
-21.5884 92.0315 24.0741 7.3644 15.7131 -69.9934 -25.3441 7.33816 30.4558 -104.919 3.18114 35.234 31.9879 -41.2268 -105.526 -0.307666 -53.5212 -1.40313 -19.8827 22.0866 15.6197 46.8323 32.5278 60.9469 -19.7183 -31.1557 69.5889 14.2211 -80.2611 14.497 -2.8515 5.74179 2.10077 0.0240716 29.2137 -0.672238 15.2164 10.3054 -20.3354 33.7345 -58.6507 -5.22513 -7.85932 58.1255 10.0966 1.17538 26.8298 -12.4107 
-22.1263 91.6177 24.2187 5.5679 15.198 -76.5714 -27.373 6.73052 29.4095 -101.423 -1.49339 36.4518 31.8509 -37.2702 -99.3714 -0.217876 -62.7556 -1.32365 -22.0499 19.2322 21.084 41.1745 32.1203 65.4025 -18.6941 -31.6806 72.4508 10.7966 -78.0277 11.1392 -5.5523 1.58645 0.849266 0.223074 32.4706 -0.982273 13.8301 6.77456 -19.993 38.0685 -51.2972 -0.0330364 -6.81458 57.3553 9.17875 -0.00102069 20.9153 -11.0123 
-23.2442 90.8932 24.8618 2.28661 15.6334 -82.9083 -27.2567 5.33714 26.9474 -94.689 -8.48146 36.4368 29.653 -30.8846 -90.5724 1.30487 -70.8953 0.142121 -22.7659 17.2015 28.0859 38.9054 39.6931 61.681 -17.4238 -30.8519 73.2144 6.82152 -71.5578 7.1917 -7.39078 0.437952 1.13671 0.410004 34.8492 -1.47328 14.6803 8.72463 -19.8639 39.2423 -38.1994 1.26634 -4.55731 54.0321 7.23136 -1.59475 8.05168 -7.93464 
-24.174 90.9842 25.5571 0.033197 15.5581 -90.2321 -27.2225 3.17125 22.8583 -86.1279 -14.4199 32.4431 22.0162 -25.6534 -79.1957 6.56675 -84.0123 7.06381 -24.1448 12.5486 34.7562 39.6413 50.3838 53.0919 -16.2257 -29.9113 72.1932 5.0972 -67.0399 5.22181 -9.96854 -0.835139 4.58553 0.707349 37.4612 -2.08917 15.5307 16.117 -16.4102 39.4328 -28.9145 2.14152 -3.55236 52.8232 6.28507 -3.07354 4.9759 -4.4107 
-24.702 92.0768 25.2825 -2.12455 14.5592 -99.4852 -30.3184 0.34207 19.4244 -74.2122 -20.2597 22.3931 21.0306 -24.1195 -64.9644 176.517 -81.8715 176.822 -25.2181 5.95486 42.6653 46.6371 58.2973 41.9516 -16.3827 -29.335 69.5174 4.16794 -61.9896 4.14539 -11.3112 -3.32871 15.2829 1.0209 38.9091 -2.69067 16.208 23.3447 -14.4911 38.8211 -20.5771 4.10749 -3.27505 53.6688 5.87537 -4.77436 6.89943 -1.52646 
-25.0572 93.2104 25.2656 -3.72625 14.6586 -105.71 -31.0815 -2.34698 14.7116 -66.4246 -30.8213 10.1577 19.513 -26.3097 -71.2231 162.987 -85.8975 162.903 -29.9834 4.11218 47.8278 55.8616 61.5573 27.1869 -16.572 -28.8396 68.4371 3.44818 -58.5182 3.18803 -10.4771 -5.55678 22.5296 0.918653 40.5628 -2.97733 17.5349 29.0827 -14.653 37.489 -14.1936 2.04609 -2.79259 52.5849 5.17175 -6.1494 9.06955 0.538103 
-24.4433 93.7123 24.4152 -4.53494 14.6881 -104.564 -33.6516 -0.326616 8.1955 -61.4801 -29.8073 -15.2575 18.7368 -27.3582 -79.8799 65.3029 -88.532 64.5786 -33.0302 3.71362 48.2438 63.817 57.6564 13.5892 -16.3347 -28.5683 71.2666 3.67234 -60.3857 3.24757 -8.1978 -8.20907 23.4718 0.927809 46.7217 -3.07107 15.4733 29.5439 -11.584 36.7293 -14.2262 -1.79727 -2.55241 51.0951 4.77882 -6.27331 11.0847 0.47365 
-23.234 92.8889 23.4246 -5.12271 15.9508 -100.428 -34.1059 5.31387 2.15503 -50.2957 -21.4093 -32.6346 20.5132 -27.9215 -83.6032 9.27114 -83.1991 8.48243 -31.6975 0.181749 47.5338 64.4226 52.0021 8.2386 -16.658 -28.3 71.5685 3.20792 -61.7906 2.96342 -4.67084 -10.7652 22.7534 1.58647 53.567 -2.70267 6.08831 27.8873 1.63731 39.3147 -17.1587 -1.12712 -2.67742 51.4139 5.08907 -4.89325 11.2968 -1.84782 
-22.2 91.1548 23.7858 -5.14336 17.4287 -97.4868 -29.2018 10.8707 -2.35172 -45.5132 -14.2737 -40.2302 23.962 -29.8643 -87.6138 2.68087 -76.0687 1.80161 -35.3603 -4.56769 46.6725 60.2939 47.3539 6.98285 -17.6353 -27.9271 69.1587 2.92411 -60.9384 2.55402 -3.14654 -12.536 20.5552 1.82445 55.8586 -2.44527 1.42398 28.548 8.46636 41.2181 -21.2214 -0.571824 -3.31893 54.5625 6.15345 -4.74861 8.58975 -2.10452 
-21.8006 89.5923 24.7751 -5.57248 17.3927 -96.972 -24.4127 13.4662 -1.57573 -52.1219 -5.42966 -44.9487 26.653 -33.7324 -92.0815 2.2141 -74.4405 1.40304 -38.1865 -5.32304 45.2004 60.7574 43.3718 1.29784 -18.1802 -27.2856 66.6159 2.88295 -64.5505 2.55916 -4.72038 -10.0324 21.3596 1.67124 52.7387 -2.13747 1.55219 27.3802 8.18217 41.5075 -22.4637 0.502713 -4.05708 57.2078 7.09112 -4.01173 4.70001 -3.32814 
-21.6404 88.8651 25.1251 -4.24284 16.2006 -95.6221 -21.9513 13.2867 0.51456 -61.0211 6.20278 -43.3367 28.0632 -37.5499 -97.0649 1.98018 -73.4712 1.24131 -37.1565 -2.75181 43.4787 65.6079 42.3435 -3.78734 -19.7142 -25.0282 59.6858 3.28486 -69.2408 3.21661 -7.0065 -7.24134 22.6234 1.73551 48.5084 -1.82466 0.431507 21.2845 9.81671 41.9047 -24.7103 2.09419 -4.2138 56.7848 7.13706 -1.68678 4.81192 -8.15943 
